<svg width="270" height="269" viewBox="0 0 270 269" fill="none" xmlns="http://www.w3.org/2000/svg">
<g clip-path="url(#clip0_1107_617)">
<path d="M269.345 -3.8147e-06H0.379318V268.966H269.345V-3.8147e-06Z" fill="#060E21"/>
<path d="M50.0774 99.3061H27.2342V154.53H40.6192V136.097H50.0774C63.1411 136.097 68.9924 127.04 68.9924 117.742C68.9924 108.528 63.1411 99.3061 50.0774 99.3061ZM49.4359 124.554H40.6192V111.009H49.4359C53.8443 111.009 55.4473 114.535 55.4473 117.741C55.4473 121.034 53.8443 124.554 49.4359 124.554Z" fill="#FAFAF8"/>
<path d="M89.4714 143.628C85.2231 143.628 81.697 140.101 81.697 135.853C81.697 131.605 85.2231 128.079 89.4714 128.079C92.7474 128.079 95.5877 130.181 96.7187 133.089C100.507 133.687 105.057 134.063 109.989 134.134V117.18H97.2459V121.188C94.922 117.901 90.6737 116.219 86.9069 116.219C77.6894 116.219 68.7127 123.672 68.7127 135.775C68.7127 147.958 77.6894 155.251 86.9069 155.251C90.9938 155.251 94.922 153.567 97.2459 150.275V154.523H109.989V137.323C105.148 137.367 100.647 137.7 96.8519 138.252C95.8231 141.355 92.8819 143.628 89.4714 143.628Z" fill="#FAFAF8"/>
<path d="M133.114 128.001C134.435 127.991 135.736 128.326 136.889 128.972C138.041 129.619 139.005 130.554 139.686 131.687L150.106 125.436C146.34 119.905 140.969 116.219 133.675 116.219C123.05 116.219 113.828 123.212 112.986 134.137C117.693 134.086 122.074 133.759 125.787 133.225C126.858 130.205 129.752 128.001 133.114 128.001Z" fill="#FAFAF8"/>
<path d="M133.114 143.55C129.764 143.55 126.87 141.352 125.793 138.341C122.109 137.775 117.724 137.414 112.979 137.338C113.786 148.3 123.032 155.251 133.675 155.251C140.969 155.251 146.418 151.565 150.185 146.033L139.526 140.103C138.001 142.267 135.758 143.55 133.114 143.55Z" fill="#FAFAF8"/>
<path d="M173.143 103.795H160.56V117.18H153.747V126.558H160.56V154.53H173.143V126.558H180.998V117.18H173.143V103.795Z" fill="#FAFAF8"/>
<path d="M197.588 97.543H184.844V154.529H197.588V97.543Z" fill="#FAFAF8"/>
<path d="M242.49 117.18L219.406 172.964H206.021L215.398 149.564L200.732 117.18H214.678L221.971 135.29L228.944 117.176L242.49 117.18Z" fill="#FAFAF8"/>
<path d="M234.131 110.853L236.881 106.13L221.61 96.0018L206.341 106.13L209.59 110.853L221.61 108.357L234.131 110.853Z" fill="#156CEF"/>
</g>
<defs>
<clipPath id="clip0_1107_617">
<rect width="268.966" height="268.966" fill="white" transform="translate(0.379318 -3.8147e-06)"/>
</clipPath>
</defs>
</svg>
